{"title":"Sleuth.2007.SWESUB.DVDRip.XviD.-Zen_Bud","uid":5689244,"size":743350272,"categoryP":"video","categoryS":"movies","magnet":"?xt=urn:btih:7f21e4296a32232717c46dc0d0363bdac62151db&amp;dn=Sleuth.2007.SWESUB.DVDRip.XviD.-Zen_Bud&amp;tr=udp%3A%2F%2Ftracker.openbittorrent.com%3A80&amp;tr=udp%3A%2F%2Fopen.demonii.com%3A1337&amp;tr=udp%3A%2F%2Ftracker.coppersurfer.tk%3A6969&amp;tr=udp%3A%2F%2Fexodus.desync.com%3A6969","seeders":0,"leechers":1,"uploader":"Zen_Bud","files":1,"time":1279004301,"description":"General\nComplete name                    : Sleuth.2007.avi\nFormat                           : AVI\nFile size                        : 709 MiB\nDuration                         : 1h 25mn\nOverall bit rate                 : 1 165 Kbps\n\nVideo\n\nFormat                           : MPEG-4 Visual\nCodec ID/Hint                    : XviD\nDuration                         : 1h 25mn\nBit rate                         : 1 027 Kbps\nWidth                            : 720 pixels\nHeight                           : 420 pixels\nDisplay aspect ratio             : 16:9\nStream size                      : 625 MiB (88%)\nWriting library                  : XviD 1.2.1 (UTC 2008-12-04)\n\nAudio\n\nFormat                           : MPEG Audio\nCodec ID/Hint                    : MP3\nDuration                         : 1h 25mn\nBit rate                         : 128 Kbps\nChannel(s)                       : 2 channels\nSampling rate                    : 48.0 KHz\nStream size                      : 77.9 MiB (11%)\nWriting library                  : LAME3.97 \n\n &lt;a href=&quot;\nhttp://www.imdb.com/title/tt0857265/&quot; rel=&quot;nofollow&quot; target=&quot;_NEW&quot;&gt;\nhttp://www.imdb.com/title/tt0857265/&lt;/a&gt;","torrent":{"xt":"urn:btih:7f21e4296a32232717c46dc0d0363bdac62151db","amp;dn":"Sleuth.2007.SWESUB.DVDRip.XviD.-Zen_Bud","amp;tr":["udp%3A%2F%2Ftracker.openbittorrent.com%3A80","udp%3A%2F%2Fopen.demonii.com%3A1337","udp%3A%2F%2Ftracker.coppersurfer.tk%3A6969","udp%3A%2F%2Fexodus.desync.com%3A6969"],"infoHash":"7f21e4296a32232717c46dc0d0363bdac62151db","infoHashBuffer":{"type":"Buffer","data":[127,33,228,41,106,50,35,39,23,196,109,192,208,54,59,218,198,33,81,219]},"announce":[],"urlList":[]}}